<svg width="127" height="53" viewBox="0 0 127 53" fill="none" xmlns="http://www.w3.org/2000/svg">
<path d="M2.772 18.578H8.892V20H0.828V18.704L6.912 8.876H0.9V7.454H8.856V8.75L2.772 18.578ZM12.7623 8.786V12.98H17.3343V14.33H12.7623V18.65H17.8743V20H11.1243V7.436H17.8743V8.786H12.7623ZM21.9908 8.786V12.98H26.5628V14.33H21.9908V18.65H27.1028V20H20.3528V7.436H27.1028V8.786H21.9908ZM35.8633 13.538C36.3193 13.61 36.7333 13.796 37.1053 14.096C37.4893 14.396 37.7893 14.768 38.0053 15.212C38.2333 15.656 38.3473 16.13 38.3473 16.634C38.3473 17.27 38.1853 17.846 37.8613 18.362C37.5373 18.866 37.0633 19.268 36.4393 19.568C35.8273 19.856 35.1013 20 34.2613 20H29.5813V7.454H34.0813C34.9333 7.454 35.6593 7.598 36.2593 7.886C36.8593 8.162 37.3093 8.54 37.6093 9.02C37.9093 9.5 38.0593 10.04 38.0593 10.64C38.0593 11.384 37.8553 12.002 37.4473 12.494C37.0513 12.974 36.5233 13.322 35.8633 13.538ZM31.2193 12.872H33.9733C34.7413 12.872 35.3353 12.692 35.7553 12.332C36.1753 11.972 36.3853 11.474 36.3853 10.838C36.3853 10.202 36.1753 9.704 35.7553 9.344C35.3353 8.984 34.7293 8.804 33.9373 8.804H31.2193V12.872ZM34.1173 18.65C34.9333 18.65 35.5693 18.458 36.0253 18.074C36.4813 17.69 36.7093 17.156 36.7093 16.472C36.7093 15.776 36.4693 15.23 35.9893 14.834C35.5093 14.426 34.8673 14.222 34.0633 14.222H31.2193V18.65H34.1173ZM47.2264 20L44.2384 14.87H42.2584V20H40.6204V7.454H44.6704C45.6184 7.454 46.4164 7.616 47.0644 7.94C47.7244 8.264 48.2164 8.702 48.5404 9.254C48.8644 9.806 49.0264 10.436 49.0264 11.144C49.0264 12.008 48.7744 12.77 48.2704 13.43C47.7784 14.09 47.0344 14.528 46.0384 14.744L49.1884 20H47.2264ZM42.2584 13.556H44.6704C45.5584 13.556 46.2244 13.34 46.6684 12.908C47.1124 12.464 47.3344 11.876 47.3344 11.144C47.3344 10.4 47.1124 9.824 46.6684 9.416C46.2364 9.008 45.5704 8.804 44.6704 8.804H42.2584V13.556ZM58.9875 17.21H53.5155L52.5075 20H50.7795L55.3155 7.526H57.2055L61.7235 20H59.9955L58.9875 17.21ZM58.5195 15.878L56.2515 9.542L53.9835 15.878H58.5195Z" fill="#232323"/>
<path d="M1.188 38.328C1.188 35.832 1.728 33.612 2.808 31.668C3.888 29.7 5.388 28.176 7.308 27.096C9.252 25.992 11.448 25.44 13.896 25.44C16.896 25.44 19.464 26.232 21.6 27.816C23.736 29.4 25.164 31.56 25.884 34.296H19.116C18.612 33.24 17.892 32.436 16.956 31.884C16.044 31.332 15 31.056 13.824 31.056C11.928 31.056 10.392 31.716 9.216 33.036C8.04 34.356 7.452 36.12 7.452 38.328C7.452 40.536 8.04 42.3 9.216 43.62C10.392 44.94 11.928 45.6 13.824 45.6C15 45.6 16.044 45.324 16.956 44.772C17.892 44.22 18.612 43.416 19.116 42.36H25.884C25.164 45.096 23.736 47.256 21.6 48.84C19.464 50.4 16.896 51.18 13.896 51.18C11.448 51.18 9.252 50.64 7.308 49.56C5.388 48.456 3.888 46.932 2.808 44.988C1.728 43.044 1.188 40.824 1.188 38.328ZM42.5419 51L37.2859 41.46H35.8099V51H29.6539V25.728H39.9859C41.9779 25.728 43.6699 26.076 45.0619 26.772C46.4779 27.468 47.5339 28.428 48.2299 29.652C48.9259 30.852 49.2739 32.196 49.2739 33.684C49.2739 35.364 48.7939 36.864 47.8339 38.184C46.8979 39.504 45.5059 40.44 43.6579 40.992L49.4899 51H42.5419ZM35.8099 37.104H39.6259C40.7539 37.104 41.5939 36.828 42.1459 36.276C42.7219 35.724 43.0099 34.944 43.0099 33.936C43.0099 32.976 42.7219 32.22 42.1459 31.668C41.5939 31.116 40.7539 30.84 39.6259 30.84H35.8099V37.104ZM90.583 51.252C88.735 51.252 87.079 50.952 85.615 50.352C84.151 49.752 82.975 48.864 82.087 47.688C81.223 46.512 80.767 45.096 80.719 43.44H87.271C87.367 44.376 87.691 45.096 88.243 45.6C88.795 46.08 89.515 46.32 90.403 46.32C91.315 46.32 92.035 46.116 92.563 45.708C93.091 45.276 93.355 44.688 93.355 43.944C93.355 43.32 93.139 42.804 92.707 42.396C92.299 41.988 91.783 41.652 91.159 41.388C90.559 41.124 89.695 40.824 88.567 40.488C86.935 39.984 85.603 39.48 84.571 38.976C83.539 38.472 82.651 37.728 81.907 36.744C81.163 35.76 80.791 34.476 80.791 32.892C80.791 30.54 81.643 28.704 83.347 27.384C85.051 26.04 87.271 25.368 90.007 25.368C92.791 25.368 95.035 26.04 96.739 27.384C98.443 28.704 99.355 30.552 99.475 32.928H92.815C92.767 32.112 92.467 31.476 91.915 31.02C91.363 30.54 90.655 30.3 89.791 30.3C89.047 30.3 88.447 30.504 87.991 30.912C87.535 31.296 87.307 31.86 87.307 32.604C87.307 33.42 87.691 34.056 88.459 34.512C89.227 34.968 90.427 35.46 92.059 35.988C93.691 36.54 95.011 37.068 96.019 37.572C97.051 38.076 97.939 38.808 98.683 39.768C99.427 40.728 99.799 41.964 99.799 43.476C99.799 44.916 99.427 46.224 98.683 47.4C97.963 48.576 96.907 49.512 95.515 50.208C94.123 50.904 92.479 51.252 90.583 51.252ZM112.731 51.252C110.883 51.252 109.227 50.952 107.763 50.352C106.299 49.752 105.123 48.864 104.235 47.688C103.371 46.512 102.915 45.096 102.867 43.44H109.419C109.515 44.376 109.839 45.096 110.391 45.6C110.943 46.08 111.663 46.32 112.551 46.32C113.463 46.32 114.183 46.116 114.711 45.708C115.239 45.276 115.503 44.688 115.503 43.944C115.503 43.32 115.287 42.804 114.855 42.396C114.447 41.988 113.931 41.652 113.307 41.388C112.707 41.124 111.843 40.824 110.715 40.488C109.083 39.984 107.751 39.48 106.719 38.976C105.687 38.472 104.799 37.728 104.055 36.744C103.311 35.76 102.939 34.476 102.939 32.892C102.939 30.54 103.791 28.704 105.495 27.384C107.199 26.04 109.419 25.368 112.155 25.368C114.939 25.368 117.183 26.04 118.887 27.384C120.591 28.704 121.503 30.552 121.623 32.928H114.963C114.915 32.112 114.615 31.476 114.063 31.02C113.511 30.54 112.803 30.3 111.939 30.3C111.195 30.3 110.595 30.504 110.139 30.912C109.683 31.296 109.455 31.86 109.455 32.604C109.455 33.42 109.839 34.056 110.607 34.512C111.375 34.968 112.575 35.46 114.207 35.988C115.839 36.54 117.159 37.068 118.167 37.572C119.199 38.076 120.087 38.808 120.831 39.768C121.575 40.728 121.947 41.964 121.947 43.476C121.947 44.916 121.575 46.224 120.831 47.4C120.111 48.576 119.055 49.512 117.663 50.208C116.271 50.904 114.627 51.252 112.731 51.252Z" fill="#232323"/>
<path d="M65.0903 51.252C62.7143 51.252 60.5303 50.7 58.5383 49.596C56.5703 48.492 54.9983 46.956 53.8223 44.988C52.6702 42.996 52.0942 40.764 52.0942 38.292C52.0942 35.82 52.6702 33.6 53.8223 31.632C54.9983 29.664 56.5703 28.128 58.5383 27.024C60.5303 25.92 62.7143 25.368 65.0903 25.368C67.4663 25.368 69.6383 25.92 71.6063 27.024C73.5983 28.128 75.1583 29.664 76.2863 31.632C77.4383 33.6 78.0143 35.82 78.0143 38.292C78.0143 40.764 77.4383 42.996 76.2863 44.988C75.1343 46.956 73.5743 48.492 71.6063 49.596C69.6383 50.7 67.4663 51.252 65.0903 51.252ZM65.0903 45.636C67.1063 45.636 68.7143 44.964 69.9142 43.62C71.1383 42.276 71.7503 40.5 71.7503 38.292C71.7503 36.06 71.1383 34.284 69.9142 32.964C68.7143 31.62 67.1063 30.948 65.0903 30.948C63.0503 30.948 61.4183 31.608 60.1943 32.928C58.9943 34.248 58.3943 36.036 58.3943 38.292C58.3943 40.524 58.9943 42.312 60.1943 43.656C61.4183 44.976 63.0503 45.636 65.0903 45.636Z" fill="#ECB328"/>
</svg>
